# xmcd CD database file
#
# Track frame offsets:
#	150
#	33198
#	55921
#	80764
#	99931
#	126741
#	149137
#	158434
#	185413
#	208238
#	229709
#
# Disc length: 3308 seconds
#
# Revision: 0
# Processed by: cddbd v1.5.2PL0 Copyright (c) Steve Scherf et al.
# Submitted via: CDex 1.70beta2
#
DISCID=9b0cea0b
DTITLE=Wolfgang Muthspiel and Brian Blade - Friendly Travelers
DYEAR=2007
DGENRE=Jazz
TTITLE0=Gnadenwald
TTITLE1=Between The Beats
TTITLE2=End On 4
TTITLE3=Vallekilde
TTITLE4=Youssou
TTITLE5=Friendly Travelers
TTITLE6=Balladino
TTITLE7=Heavy Song
TTITLE8=Andrej Rubljow
TTITLE9=Cold Summer
TTITLE10=The Tuning Of The Bells
EXTD=YEAR: 2007
EXTT0=
EXTT1=
EXTT2=
EXTT3=
EXTT4=
EXTT5=
EXTT6=
EXTT7=
EXTT8=
EXTT9=
EXTT10=
PLAYORDER=
